%TF.GenerationSoftware,KiCad,Pcbnew,(6.0.7-1)-1*%
%TF.CreationDate,2022-11-03T20:53:44+08:00*%
%TF.ProjectId,kiai,6b696169-2e6b-4696-9361-645f70636258,rev?*%
%TF.SameCoordinates,Original*%
%TF.FileFunction,Legend,Top*%
%TF.FilePolarity,Positive*%
%FSLAX46Y46*%
G04 Gerber Fmt 4.6, Leading zero omitted, Abs format (unit mm)*
G04 Created by KiCad (PCBNEW (6.0.7-1)-1) date 2022-11-03 20:53:44*
%MOMM*%
%LPD*%
G01*
G04 APERTURE LIST*
%ADD10C,0.150000*%
%ADD11C,0.120000*%
G04 APERTURE END LIST*
D10*
X183433333Y18352619D02*
X183433333Y19352619D01*
X184004761Y18352619D02*
X183576190Y18924047D01*
X184004761Y19352619D02*
X183433333Y18781190D01*
X184433333Y18352619D02*
X184433333Y19352619D01*
X184861904Y18638333D02*
X185338095Y18638333D01*
X184766666Y18352619D02*
X185100000Y19352619D01*
X185433333Y18352619D01*
X185766666Y18352619D02*
X185766666Y19352619D01*
X181076190Y17409285D02*
X180314285Y17123571D01*
X181076190Y16837857D01*
X181552380Y17409285D02*
X181552380Y16552142D01*
X181504761Y16456904D01*
X181409523Y16409285D01*
X181361904Y16409285D01*
X181552380Y17742619D02*
X181504761Y17695000D01*
X181552380Y17647380D01*
X181600000Y17695000D01*
X181552380Y17742619D01*
X181552380Y17647380D01*
X182457142Y16742619D02*
X182457142Y17266428D01*
X182409523Y17361666D01*
X182314285Y17409285D01*
X182123809Y17409285D01*
X182028571Y17361666D01*
X182457142Y16790238D02*
X182361904Y16742619D01*
X182123809Y16742619D01*
X182028571Y16790238D01*
X181980952Y16885476D01*
X181980952Y16980714D01*
X182028571Y17075952D01*
X182123809Y17123571D01*
X182361904Y17123571D01*
X182457142Y17171190D01*
X182933333Y16742619D02*
X182933333Y17409285D01*
X182933333Y17314047D02*
X182980952Y17361666D01*
X183076190Y17409285D01*
X183219047Y17409285D01*
X183314285Y17361666D01*
X183361904Y17266428D01*
X183361904Y16742619D01*
X183361904Y17266428D02*
X183409523Y17361666D01*
X183504761Y17409285D01*
X183647619Y17409285D01*
X183742857Y17361666D01*
X183790476Y17266428D01*
X183790476Y16742619D01*
X184266666Y16742619D02*
X184266666Y17409285D01*
X184266666Y17314047D02*
X184314285Y17361666D01*
X184409523Y17409285D01*
X184552380Y17409285D01*
X184647619Y17361666D01*
X184695238Y17266428D01*
X184695238Y16742619D01*
X184695238Y17266428D02*
X184742857Y17361666D01*
X184838095Y17409285D01*
X184980952Y17409285D01*
X185076190Y17361666D01*
X185123809Y17266428D01*
X185123809Y16742619D01*
X185980952Y16790238D02*
X185885714Y16742619D01*
X185695238Y16742619D01*
X185600000Y16790238D01*
X185552380Y16885476D01*
X185552380Y17266428D01*
X185600000Y17361666D01*
X185695238Y17409285D01*
X185885714Y17409285D01*
X185980952Y17361666D01*
X186028571Y17266428D01*
X186028571Y17171190D01*
X185552380Y17075952D01*
X186457142Y16742619D02*
X186457142Y17409285D01*
X186457142Y17218809D02*
X186504761Y17314047D01*
X186552380Y17361666D01*
X186647619Y17409285D01*
X186742857Y17409285D01*
X187790476Y17790238D02*
X186933333Y16504523D01*
X188123809Y17409285D02*
X188885714Y17123571D01*
X188123809Y16837857D01*
%TO.C,GD1*%
X125385714Y4830000D02*
X125290476Y4877619D01*
X125147619Y4877619D01*
X125004761Y4830000D01*
X124909523Y4734761D01*
X124861904Y4639523D01*
X124814285Y4449047D01*
X124814285Y4306190D01*
X124861904Y4115714D01*
X124909523Y4020476D01*
X125004761Y3925238D01*
X125147619Y3877619D01*
X125242857Y3877619D01*
X125385714Y3925238D01*
X125433333Y3972857D01*
X125433333Y4306190D01*
X125242857Y4306190D01*
X125861904Y3877619D02*
X125861904Y4877619D01*
X126100000Y4877619D01*
X126242857Y4830000D01*
X126338095Y4734761D01*
X126385714Y4639523D01*
X126433333Y4449047D01*
X126433333Y4306190D01*
X126385714Y4115714D01*
X126338095Y4020476D01*
X126242857Y3925238D01*
X126100000Y3877619D01*
X125861904Y3877619D01*
X127385714Y3877619D02*
X126814285Y3877619D01*
X127100000Y3877619D02*
X127100000Y4877619D01*
X127004761Y4734761D01*
X126909523Y4639523D01*
X126814285Y4591904D01*
D11*
X124770000Y-4410000D02*
X127430000Y-4410000D01*
X124770000Y730000D02*
X124770000Y-4410000D01*
X124770000Y2000000D02*
X124770000Y3330000D01*
X127430000Y730000D02*
X127430000Y-4410000D01*
X124770000Y3330000D02*
X126100000Y3330000D01*
X124770000Y730000D02*
X127430000Y730000D01*
%TO.C,K15*%
X141350000Y33200000D02*
X141350000Y31200000D01*
X141350000Y31200000D02*
X145250000Y31200000D01*
X141350000Y33200000D02*
X145250000Y33200000D01*
%TO.C,K3*%
X159950000Y46684000D02*
X163850000Y46684000D01*
X159950000Y44684000D02*
X163850000Y44684000D01*
X159950000Y46684000D02*
X159950000Y44684000D01*
%TO.C,K1*%
X159950000Y27200000D02*
X163850000Y27200000D01*
X159950000Y29200000D02*
X163850000Y29200000D01*
X159950000Y29200000D02*
X159950000Y27200000D01*
%TO.C,K11*%
X122950000Y45600000D02*
X126850000Y45600000D01*
X122950000Y47600000D02*
X126850000Y47600000D01*
X122950000Y47600000D02*
X122950000Y45600000D01*
%TO.C,K13*%
X102800748Y53080874D02*
X102905420Y51083615D01*
X102800748Y53080874D02*
X106695403Y53284984D01*
X102905420Y51083615D02*
X106800075Y51287725D01*
%TO.C,K6*%
X178450000Y59700000D02*
X182350000Y59700000D01*
X178450000Y61700000D02*
X178450000Y59700000D01*
X178450000Y61700000D02*
X182350000Y61700000D01*
%TO.C,K12*%
X104336260Y18397998D02*
X108230915Y18602108D01*
X104336260Y18397998D02*
X104440932Y16400739D01*
X104440932Y16400739D02*
X108335587Y16604849D01*
%TO.C,K5*%
X178450000Y26800000D02*
X178450000Y24800000D01*
X178450000Y24800000D02*
X182350000Y24800000D01*
X178450000Y26800000D02*
X182350000Y26800000D01*
%TO.C,K16*%
X141450000Y68000000D02*
X141450000Y66000000D01*
X141450000Y68000000D02*
X145350000Y68000000D01*
X141450000Y66000000D02*
X145350000Y66000000D01*
%TO.C,K2*%
X159950000Y64100000D02*
X159950000Y62100000D01*
X159950000Y64100000D02*
X163850000Y64100000D01*
X159950000Y62100000D02*
X163850000Y62100000D01*
%TO.C,K4*%
X162820801Y6101602D02*
X166587912Y5092207D01*
X162303163Y4169750D02*
X166070274Y3160356D01*
X162820801Y6101602D02*
X162303163Y4169750D01*
%TO.C,K17*%
X141450000Y50600000D02*
X141450000Y48600000D01*
X141450000Y48600000D02*
X145350000Y48600000D01*
X141450000Y50600000D02*
X145350000Y50600000D01*
%TO.C,K10*%
X122950000Y64900000D02*
X122950000Y62900000D01*
X122950000Y62900000D02*
X126850000Y62900000D01*
X122950000Y64900000D02*
X126850000Y64900000D01*
%TO.C,K9*%
X122850000Y30300000D02*
X122850000Y28300000D01*
X122850000Y30300000D02*
X126750000Y30300000D01*
X122850000Y28300000D02*
X126750000Y28300000D01*
%TO.C,K14*%
X103536260Y35787041D02*
X103640932Y33789782D01*
X103640932Y33789782D02*
X107535587Y33993892D01*
X103536260Y35787041D02*
X107430915Y35991151D01*
%TO.C,K8*%
X179701444Y-2438139D02*
X183078943Y-4388139D01*
X180701444Y-706089D02*
X184078943Y-2656089D01*
X180701444Y-706089D02*
X179701444Y-2438139D01*
%TO.C,BT1*%
X121100000Y-3610000D02*
X121100000Y-4110000D01*
X120290000Y-3110000D02*
X118790000Y-3110000D01*
X118790000Y-4110000D02*
X122810000Y-4110000D01*
X120290000Y2610000D02*
X118790000Y2610000D01*
X122310000Y3110000D02*
X122310000Y-3610000D01*
X120290000Y-4110000D02*
X120290000Y-3110000D01*
X122810000Y-4110000D02*
X122810000Y3610000D01*
X118490000Y3910000D02*
X118490000Y1410000D01*
X118790000Y3610000D02*
X118790000Y-4110000D01*
X122310000Y-3610000D02*
X121100000Y-3610000D01*
X120990000Y3910000D02*
X118490000Y3910000D01*
X120290000Y3610000D02*
X120290000Y2610000D01*
X121100000Y3610000D02*
X121100000Y3110000D01*
X121100000Y3110000D02*
X122310000Y3110000D01*
X122810000Y3610000D02*
X118790000Y3610000D01*
%TO.C,K7*%
X178450000Y42356000D02*
X182350000Y42356000D01*
X178450000Y44356000D02*
X182350000Y44356000D01*
X178450000Y44356000D02*
X178450000Y42356000D01*
%TD*%
M02*
