%TF.GenerationSoftware,KiCad,Pcbnew,(6.0.7-1)-1*%
%TF.CreationDate,2022-11-03T20:53:44+08:00*%
%TF.ProjectId,kiai,6b696169-2e6b-4696-9361-645f70636258,rev?*%
%TF.SameCoordinates,Original*%
%TF.FileFunction,Copper,L1,Top*%
%TF.FilePolarity,Positive*%
%FSLAX46Y46*%
G04 Gerber Fmt 4.6, Leading zero omitted, Abs format (unit mm)*
G04 Created by KiCad (PCBNEW (6.0.7-1)-1) date 2022-11-03 20:53:44*
%MOMM*%
%LPD*%
G01*
G04 APERTURE LIST*
G04 Aperture macros list*
%AMRoundRect*
0 Rectangle with rounded corners*
0 $1 Rounding radius*
0 $2 $3 $4 $5 $6 $7 $8 $9 X,Y pos of 4 corners*
0 Add a 4 corners polygon primitive as box body*
4,1,4,$2,$3,$4,$5,$6,$7,$8,$9,$2,$3,0*
0 Add four circle primitives for the rounded corners*
1,1,$1+$1,$2,$3*
1,1,$1+$1,$4,$5*
1,1,$1+$1,$6,$7*
1,1,$1+$1,$8,$9*
0 Add four rect primitives between the rounded corners*
20,1,$1+$1,$2,$3,$4,$5,0*
20,1,$1+$1,$4,$5,$6,$7,0*
20,1,$1+$1,$6,$7,$8,$9,0*
20,1,$1+$1,$8,$9,$2,$3,0*%
%AMRotRect*
0 Rectangle, with rotation*
0 The origin of the aperture is its center*
0 $1 length*
0 $2 width*
0 $3 Rotation angle, in degrees counterclockwise*
0 Add horizontal line*
21,1,$1,$2,0,0,$3*%
%AMFreePoly0*
4,1,50,0.004851,0.125700,0.009301,0.126658,0.029410,0.119120,0.057435,0.111610,0.063500,0.109985,0.069329,0.104156,0.076254,0.101560,0.089017,0.084468,0.109985,0.063500,0.112957,0.052407,0.119035,0.044268,0.120434,0.024505,0.127000,0.000000,0.123179,-0.014260,0.124085,-0.027055,0.115579,-0.042624,0.109985,-0.063500,0.097173,-0.076312,0.089802,-0.089803,-1.873000,-2.052606,
-1.873000,-6.950000,-1.876246,-6.972385,-1.875915,-6.977055,-1.877287,-6.979566,-1.878230,-6.986070,-1.895197,-7.012347,-1.910198,-7.039803,-3.260197,-8.389803,-3.289401,-8.411610,-3.359301,-8.426658,-3.426254,-8.401560,-3.469035,-8.344268,-3.474085,-8.272945,-3.439803,-8.210197,-2.127000,-6.897395,-2.127000,-2.000000,-2.123754,-1.977615,-2.124085,-1.972945,-2.122713,-1.970434,-2.121770,-1.963930,
-2.104806,-1.937658,-2.089803,-1.910197,-0.089803,0.089802,-0.065637,0.107848,-0.063500,0.109985,-0.062369,0.110288,-0.060599,0.111610,-0.044515,0.115072,0.000000,0.127000,0.004851,0.125700,0.004851,0.125700,$1*%
G04 Aperture macros list end*
%TA.AperFunction,ComponentPad*%
%ADD10R,1.700000X1.700000*%
%TD*%
%TA.AperFunction,ComponentPad*%
%ADD11O,1.700000X1.700000*%
%TD*%
%TA.AperFunction,ComponentPad*%
%ADD12C,2.000000*%
%TD*%
%TA.AperFunction,ComponentPad*%
%ADD13R,0.900000X1.200000*%
%TD*%
%TA.AperFunction,SMDPad,CuDef*%
%ADD14FreePoly0,0.000000*%
%TD*%
%TA.AperFunction,ComponentPad*%
%ADD15O,1.800000X2.750000*%
%TD*%
%TA.AperFunction,ComponentPad*%
%ADD16C,1.397000*%
%TD*%
%TA.AperFunction,ComponentPad*%
%ADD17RotRect,0.900000X1.200000X3.000000*%
%TD*%
%TA.AperFunction,SMDPad,CuDef*%
%ADD18FreePoly0,3.000000*%
%TD*%
%TA.AperFunction,ComponentPad*%
%ADD19RotRect,0.900000X1.200000X345.000000*%
%TD*%
%TA.AperFunction,SMDPad,CuDef*%
%ADD20FreePoly0,345.000000*%
%TD*%
%TA.AperFunction,ComponentPad*%
%ADD21RotRect,0.900000X1.200000X330.000000*%
%TD*%
%TA.AperFunction,SMDPad,CuDef*%
%ADD22FreePoly0,330.000000*%
%TD*%
%TA.AperFunction,ComponentPad*%
%ADD23RoundRect,0.250000X-0.750000X0.600000X-0.750000X-0.600000X0.750000X-0.600000X0.750000X0.600000X0*%
%TD*%
%TA.AperFunction,ComponentPad*%
%ADD24O,2.000000X1.700000*%
%TD*%
%TA.AperFunction,Conductor*%
%ADD25C,0.250000*%
%TD*%
G04 APERTURE END LIST*
D10*
%TO.P,GD1,1*%
%TO.N,/Col5A*%
X126100000Y2000000D03*
D11*
%TO.P,GD1,2*%
%TO.N,/Col 5*%
X126100000Y-540000D03*
%TO.P,GD1,3*%
%TO.N,/Col 5B*%
X126100000Y-3080000D03*
%TD*%
D12*
%TO.P,K15,1*%
%TO.N,/Row 1*%
X143600000Y42600000D03*
D13*
%TO.P,K15,2*%
%TO.N,/Col 5*%
X141950000Y32200000D03*
%TO.P,K15,3*%
%TO.N,N/C*%
X145250000Y32200000D03*
D12*
X148600000Y40500000D03*
D14*
X148600000Y40500000D03*
D12*
X138600000Y40500000D03*
%TD*%
%TO.P,K3,1*%
%TO.N,/Row 3*%
X162200000Y56084000D03*
D13*
%TO.P,K3,2*%
%TO.N,/Col 1*%
X160550000Y45684000D03*
%TO.P,K3,3*%
%TO.N,N/C*%
X163850000Y45684000D03*
D12*
X167200000Y53984000D03*
D14*
X167200000Y53984000D03*
D12*
X157200000Y53984000D03*
%TD*%
%TO.P,K1,1*%
%TO.N,/Row 1*%
X162200000Y38600000D03*
D13*
%TO.P,K1,2*%
%TO.N,/Col 1*%
X160550000Y28200000D03*
D12*
%TO.P,K1,3*%
%TO.N,N/C*%
X167200000Y36500000D03*
D13*
X163850000Y28200000D03*
D12*
X157200000Y36500000D03*
D14*
X167200000Y36500000D03*
%TD*%
D15*
%TO.P,U1,1,A2/0.02_H*%
%TO.N,unconnected-(U1-Pad1)*%
X98980000Y-6295000D03*
%TO.P,U1,2,A4/0.03_H*%
%TO.N,/Col 5B*%
X101520000Y-6295000D03*
%TO.P,U1,3,A10/0.28*%
%TO.N,unconnected-(U1-Pad3)*%
X104060000Y-6295000D03*
%TO.P,U1,4,A11/0.29*%
%TO.N,/Col 4*%
X106600000Y-6295000D03*
%TO.P,U1,5,A8_SDA/0.04_H*%
%TO.N,/Row 4*%
X109140000Y-6295000D03*
%TO.P,U1,6,A9_SCL/0.05_H*%
%TO.N,/Col 1*%
X111680000Y-6295000D03*
%TO.P,U1,7,B8_TX/1.11*%
%TO.N,/Row 2*%
X114220000Y-6295000D03*
%TO.P,U1,8,B9_RX/1.12*%
%TO.N,/Row 1*%
X114220000Y9895000D03*
%TO.P,U1,9,A7_SCK/1.13*%
%TO.N,/Col 3*%
X111680000Y9895000D03*
%TO.P,U1,10,A5_MISO/1.14*%
%TO.N,/Row 3*%
X109140000Y9895000D03*
%TO.P,U1,11,A6_MOSI/1.15*%
%TO.N,/Col 2*%
X106600000Y9895000D03*
%TO.P,U1,12,3V3*%
%TO.N,unconnected-(U1-Pad12)*%
X104060000Y9895000D03*
%TO.P,U1,13,GND*%
%TO.N,/Col5A*%
X101520000Y9895000D03*
%TO.P,U1,14,5V*%
%TO.N,unconnected-(U1-Pad14)*%
X98980000Y9895000D03*
D16*
%TO.P,U1,15,A31_SWDIO*%
%TO.N,unconnected-(U1-Pad15)*%
X98028000Y530000D03*
%TO.P,U1,16,A30_SWCLK*%
%TO.N,unconnected-(U1-Pad16)*%
X98028000Y3070000D03*
%TO.P,U1,17,RESET*%
%TO.N,unconnected-(U1-Pad17)*%
X100568000Y530000D03*
%TO.P,U1,18,GND*%
%TO.N,GND*%
X100568000Y3070000D03*
%TO.P,U1,19,BAT*%
%TO.N,Net-(BT1-Pad1)*%
X106283000Y-2645000D03*
X106300000Y6200000D03*
%TO.P,U1,20,GND*%
%TO.N,Net-(BT1-Pad2)*%
X104378000Y-2645000D03*
X104395000Y6200000D03*
%TO.P,U1,21,NFC1/0.09_H*%
%TO.N,unconnected-(U1-Pad21)*%
X115808000Y5610000D03*
%TO.P,U1,22,NFC2/0.10_H*%
%TO.N,unconnected-(U1-Pad22)*%
X115808000Y7515000D03*
%TD*%
D12*
%TO.P,K11,1*%
%TO.N,/Row 3*%
X125200000Y57000000D03*
D13*
%TO.P,K11,2*%
%TO.N,/Col 3*%
X123550000Y46600000D03*
D12*
%TO.P,K11,3*%
%TO.N,N/C*%
X130200000Y54900000D03*
D14*
X130200000Y54900000D03*
D12*
X120200000Y54900000D03*
D13*
X126850000Y46600000D03*
%TD*%
D12*
%TO.P,K13,1*%
%TO.N,/Row 2*%
X104555706Y62585747D03*
D17*
%TO.P,K13,2*%
%TO.N,/Col 4*%
X103452261Y52113646D03*
D18*
%TO.P,K13,3*%
%TO.N,N/C*%
X109658759Y60750305D03*
D12*
X109658759Y60750305D03*
D17*
X106747739Y52286354D03*
D12*
X99672464Y60226945D03*
%TD*%
%TO.P,K6,1*%
%TO.N,/Row 2*%
X180700000Y71100000D03*
D13*
%TO.P,K6,2*%
%TO.N,/Col 2*%
X179050000Y60700000D03*
D12*
%TO.P,K6,3*%
%TO.N,N/C*%
X185700000Y69000000D03*
D13*
X182350000Y60700000D03*
D12*
X175700000Y69000000D03*
D14*
X185700000Y69000000D03*
%TD*%
D12*
%TO.P,K12,1*%
%TO.N,/Row 1*%
X106091218Y27902871D03*
D17*
%TO.P,K12,2*%
%TO.N,/Col 4*%
X104987773Y17430770D03*
D18*
%TO.P,K12,3*%
%TO.N,N/C*%
X111194271Y26067429D03*
D17*
X108283251Y17603478D03*
D12*
X111194271Y26067429D03*
X101207976Y25544069D03*
%TD*%
%TO.P,K5,1*%
%TO.N,/Row 1*%
X180700000Y36200000D03*
D13*
%TO.P,K5,2*%
%TO.N,/Col 2*%
X179050000Y25800000D03*
D12*
%TO.P,K5,3*%
%TO.N,N/C*%
X185700000Y34100000D03*
D14*
X185700000Y34100000D03*
D12*
X175700000Y34100000D03*
D13*
X182350000Y25800000D03*
%TD*%
D12*
%TO.P,K16,1*%
%TO.N,/Row 2*%
X143700000Y77400000D03*
D13*
%TO.P,K16,2*%
%TO.N,/Col 5*%
X142050000Y67000000D03*
%TO.P,K16,3*%
%TO.N,N/C*%
X145350000Y67000000D03*
D12*
X138700000Y75300000D03*
X148700000Y75300000D03*
D14*
X148700000Y75300000D03*
%TD*%
D12*
%TO.P,K2,1*%
%TO.N,/Row 2*%
X162200000Y73500000D03*
D13*
%TO.P,K2,2*%
%TO.N,/Col 1*%
X160550000Y63100000D03*
D12*
%TO.P,K2,3*%
%TO.N,N/C*%
X167200000Y71400000D03*
D14*
X167200000Y71400000D03*
D12*
X157200000Y71400000D03*
D13*
X163850000Y63100000D03*
%TD*%
D12*
%TO.P,K4,1*%
%TO.N,/Row 4*%
X167427033Y14598962D03*
D19*
%TO.P,K4,2*%
%TO.N,/Col 1*%
X163141537Y4980384D03*
%TO.P,K4,3*%
%TO.N,N/C*%
X166329093Y4126282D03*
D20*
X171713142Y11276422D03*
D12*
X171713142Y11276422D03*
X162053884Y13864613D03*
%TD*%
%TO.P,K17,1*%
%TO.N,/Row 3*%
X143700000Y60000000D03*
D13*
%TO.P,K17,2*%
%TO.N,/Col 5*%
X142050000Y49600000D03*
D12*
%TO.P,K17,3*%
%TO.N,N/C*%
X138700000Y57900000D03*
D14*
X148700000Y57900000D03*
D13*
X145350000Y49600000D03*
D12*
X148700000Y57900000D03*
%TD*%
%TO.P,K10,1*%
%TO.N,/Row 2*%
X125200000Y74300000D03*
D13*
%TO.P,K10,2*%
%TO.N,/Col 3*%
X123550000Y63900000D03*
D14*
%TO.P,K10,3*%
%TO.N,N/C*%
X130200000Y72200000D03*
D12*
X130200000Y72200000D03*
D13*
X126850000Y63900000D03*
D12*
X120200000Y72200000D03*
%TD*%
%TO.P,K9,1*%
%TO.N,/Row 1*%
X125100000Y39700000D03*
D13*
%TO.P,K9,2*%
%TO.N,/Col 3*%
X123450000Y29300000D03*
D14*
%TO.P,K9,3*%
%TO.N,N/C*%
X130100000Y37600000D03*
D12*
X120100000Y37600000D03*
X130100000Y37600000D03*
D13*
X126750000Y29300000D03*
%TD*%
D12*
%TO.P,K14,1*%
%TO.N,/Row 3*%
X105291218Y45291914D03*
D17*
%TO.P,K14,2*%
%TO.N,/Col 4*%
X104187773Y34819813D03*
D12*
%TO.P,K14,3*%
%TO.N,N/C*%
X100407976Y42933112D03*
X110394271Y43456472D03*
D17*
X107483251Y34992521D03*
D18*
X110394271Y43456472D03*
%TD*%
D12*
%TO.P,K8,1*%
%TO.N,/Row 4*%
X187350001Y6309550D03*
D21*
%TO.P,K8,2*%
%TO.N,/Col 2*%
X180721059Y-1872114D03*
D22*
%TO.P,K8,3*%
%TO.N,N/C*%
X190630128Y1990897D03*
D21*
X183578943Y-3522114D03*
D12*
X181969874Y6990897D03*
X190630128Y1990897D03*
%TD*%
D23*
%TO.P,BT1,1,+*%
%TO.N,Net-(BT1-Pad1)*%
X121100000Y1000000D03*
D24*
%TO.P,BT1,2,-*%
%TO.N,Net-(BT1-Pad2)*%
X121100000Y-1500000D03*
%TD*%
D12*
%TO.P,K7,1*%
%TO.N,/Row 3*%
X180700000Y53756000D03*
D13*
%TO.P,K7,2*%
%TO.N,/Col 2*%
X179050000Y43356000D03*
D12*
%TO.P,K7,3*%
%TO.N,N/C*%
X175700000Y51656000D03*
X185700000Y51656000D03*
D13*
X182350000Y43356000D03*
D14*
X185700000Y51656000D03*
%TD*%
D25*
%TO.N,/Col 1*%
X129250000Y-2050000D02*
X125700000Y-5600000D01*
X116400000Y-8300000D02*
X118200000Y-6500000D01*
X118200000Y-6500000D02*
X118200000Y-6100000D01*
X111680000Y-5820000D02*
X111680000Y-7180000D01*
X111680000Y-7180000D02*
X112800000Y-8300000D01*
X125300000Y-6000000D02*
X125700000Y-5600000D01*
X112800000Y-8300000D02*
X116400000Y-8300000D01*
X118200000Y-6100000D02*
X118300000Y-6000000D01*
X118300000Y-6000000D02*
X125300000Y-6000000D01*
X163141537Y4980384D02*
X145419616Y4980384D01*
X145400000Y5000000D02*
X138350000Y-2050000D01*
X145419616Y4980384D02*
X145400000Y5000000D01*
X138350000Y-2050000D02*
X129250000Y-2050000D01*
%TO.N,/Col 5B*%
X122100000Y-4400000D02*
X123420000Y-3080000D01*
X123420000Y-3080000D02*
X126100000Y-3080000D01*
%TO.N,/Col 5*%
X141950000Y16450000D02*
X142300000Y16100000D01*
X142300000Y15900000D02*
X142300000Y15600000D01*
X142300000Y16100000D02*
X142300000Y15900000D01*
X126100000Y-540000D02*
X142100000Y15460000D01*
X142100000Y15460000D02*
X142100000Y15900000D01*
%TO.N,/Col5A*%
X121941071Y3958929D02*
X123900000Y2000000D01*
X123900000Y2000000D02*
X126100000Y2000000D01*
%TO.N,/Col 3*%
X111680000Y9420000D02*
X111680000Y12580000D01*
X111680000Y12580000D02*
X123450000Y24350000D01*
X123450000Y24350000D02*
X123450000Y29300000D01*
%TO.N,/Col 5*%
X141950000Y32200000D02*
X141950000Y16450000D01*
%TO.N,/Col 4*%
X96376929Y-6976929D02*
X97700000Y-8300000D01*
X97700000Y-8300000D02*
X105400000Y-8300000D01*
X96376929Y9499341D02*
X96376929Y-6976929D01*
X104308358Y17430770D02*
X96376929Y9499341D01*
X106600000Y-7100000D02*
X106600000Y-5820000D01*
X104987773Y17430770D02*
X104308358Y17430770D01*
X105400000Y-8300000D02*
X106600000Y-7100000D01*
X103452261Y52113646D02*
X103452261Y34947739D01*
X103452261Y34947739D02*
X103700000Y34700000D01*
X103700000Y34700000D02*
X103700000Y18718543D01*
X103700000Y18718543D02*
X104987773Y17430770D01*
%TO.N,/Col5A*%
X121941071Y3958929D02*
X111241071Y3958929D01*
X111241071Y3958929D02*
X107900000Y7300000D01*
X107900000Y7300000D02*
X102300000Y7300000D01*
X102300000Y7300000D02*
X102200000Y7200000D01*
X102200000Y7200000D02*
X101520000Y7880000D01*
X101520000Y7880000D02*
X101520000Y9420000D01*
%TO.N,/Col 5B*%
X122100000Y-4400000D02*
X102940000Y-4400000D01*
X102940000Y-4400000D02*
X101520000Y-5820000D01*
%TO.N,Net-(BT1-Pad2)*%
X104378000Y-2645000D02*
X105401500Y-3668500D01*
X105401500Y-3668500D02*
X118931500Y-3668500D01*
X118931500Y-3668500D02*
X121100000Y-1500000D01*
%TO.N,Net-(BT1-Pad1)*%
X106283000Y-2645000D02*
X109928000Y1000000D01*
X109928000Y1000000D02*
X121100000Y1000000D01*
X106283000Y-2645000D02*
X106283000Y6183000D01*
X106283000Y6183000D02*
X106300000Y6200000D01*
%TO.N,Net-(BT1-Pad2)*%
X104395000Y6200000D02*
X104395000Y-2628000D01*
X104395000Y-2628000D02*
X104378000Y-2645000D01*
%TO.N,/Col 3*%
X123550000Y46600000D02*
X125323001Y46600000D01*
X125323001Y46600000D02*
X127748000Y49024999D01*
X127748000Y49024999D02*
X127748000Y59702000D01*
X127748000Y59702000D02*
X123550000Y63900000D01*
X123450000Y29300000D02*
X121306013Y31443987D01*
X121306013Y33731014D02*
X123550000Y35975001D01*
X121306013Y31443987D02*
X121306013Y33731014D01*
X123550000Y35975001D02*
X123550000Y46600000D01*
%TO.N,/Col 5*%
X141950000Y32200000D02*
X139806013Y34343987D01*
X139806013Y34343987D02*
X139806013Y36781014D01*
X139806013Y36781014D02*
X142050000Y39025001D01*
X142050000Y39025001D02*
X142050000Y49600000D01*
X142050000Y49600000D02*
X141500000Y50150000D01*
X141500000Y50150000D02*
X141500000Y66450000D01*
X141500000Y66450000D02*
X142050000Y67000000D01*
%TO.N,/Col 1*%
X160550000Y45684000D02*
X158406013Y47827987D01*
X158406013Y47827987D02*
X158406013Y50115014D01*
X160550000Y52259001D02*
X160550000Y63100000D01*
X158406013Y50115014D02*
X160550000Y52259001D01*
X160550000Y28200000D02*
X158406013Y30343987D01*
X158406013Y32631014D02*
X160550000Y34775001D01*
X158406013Y30343987D02*
X158406013Y32631014D01*
X160550000Y34775001D02*
X160550000Y45684000D01*
X163141537Y4980384D02*
X163816392Y5655239D01*
X163816392Y24933608D02*
X160550000Y28200000D01*
X163816392Y5655239D02*
X163816392Y24933608D01*
%TO.N,/Col 2*%
X179050000Y25800000D02*
X179050000Y8001686D01*
X179050000Y8001686D02*
X180861862Y6189824D01*
X180861862Y-1731311D02*
X180721059Y-1872114D01*
X180861862Y6189824D02*
X180861862Y-1731311D01*
X179050000Y43356000D02*
X179050000Y34518988D01*
X179050000Y34518988D02*
X176906013Y32375001D01*
X176906013Y32375001D02*
X176906013Y27943987D01*
X176906013Y27943987D02*
X179050000Y25800000D01*
X179050000Y60700000D02*
X178624999Y60274999D01*
X178624999Y60274999D02*
X178624999Y43781001D01*
X178624999Y43781001D02*
X179050000Y43356000D01*
%TD*%
M02*
