%TF.GenerationSoftware,KiCad,Pcbnew,(6.0.7-1)-1*%
%TF.CreationDate,2022-11-03T20:53:44+08:00*%
%TF.ProjectId,kiai,6b696169-2e6b-4696-9361-645f70636258,rev?*%
%TF.SameCoordinates,Original*%
%TF.FileFunction,Soldermask,Top*%
%TF.FilePolarity,Negative*%
%FSLAX46Y46*%
G04 Gerber Fmt 4.6, Leading zero omitted, Abs format (unit mm)*
G04 Created by KiCad (PCBNEW (6.0.7-1)-1) date 2022-11-03 20:53:44*
%MOMM*%
%LPD*%
G01*
G04 APERTURE LIST*
G04 Aperture macros list*
%AMRoundRect*
0 Rectangle with rounded corners*
0 $1 Rounding radius*
0 $2 $3 $4 $5 $6 $7 $8 $9 X,Y pos of 4 corners*
0 Add a 4 corners polygon primitive as box body*
4,1,4,$2,$3,$4,$5,$6,$7,$8,$9,$2,$3,0*
0 Add four circle primitives for the rounded corners*
1,1,$1+$1,$2,$3*
1,1,$1+$1,$4,$5*
1,1,$1+$1,$6,$7*
1,1,$1+$1,$8,$9*
0 Add four rect primitives between the rounded corners*
20,1,$1+$1,$2,$3,$4,$5,0*
20,1,$1+$1,$4,$5,$6,$7,0*
20,1,$1+$1,$6,$7,$8,$9,0*
20,1,$1+$1,$8,$9,$2,$3,0*%
%AMRotRect*
0 Rectangle, with rotation*
0 The origin of the aperture is its center*
0 $1 length*
0 $2 width*
0 $3 Rotation angle, in degrees counterclockwise*
0 Add horizontal line*
21,1,$1,$2,0,0,$3*%
G04 Aperture macros list end*
%ADD10R,1.700000X1.700000*%
%ADD11O,1.700000X1.700000*%
%ADD12C,1.700000*%
%ADD13C,3.400000*%
%ADD14C,2.000000*%
%ADD15R,0.900000X1.200000*%
%ADD16O,1.800000X2.750000*%
%ADD17C,1.397000*%
%ADD18RotRect,0.900000X1.200000X3.000000*%
%ADD19RotRect,0.900000X1.200000X345.000000*%
%ADD20RotRect,0.900000X1.200000X330.000000*%
%ADD21RoundRect,0.250000X-0.750000X0.600000X-0.750000X-0.600000X0.750000X-0.600000X0.750000X0.600000X0*%
%ADD22O,2.000000X1.700000*%
G04 APERTURE END LIST*
D10*
%TO.C,GD1*%
X126100000Y2000000D03*
D11*
X126100000Y-540000D03*
X126100000Y-3080000D03*
%TD*%
D12*
%TO.C,K15*%
X149100000Y36700000D03*
X138100000Y36700000D03*
D13*
X143600000Y36700000D03*
D14*
X143600000Y42600000D03*
D15*
X141950000Y32200000D03*
X145250000Y32200000D03*
D14*
X138600000Y40500000D03*
%TD*%
D13*
%TO.C,K3*%
X162200000Y50184000D03*
D12*
X156700000Y50184000D03*
X167700000Y50184000D03*
D14*
X162200000Y56084000D03*
D15*
X160550000Y45684000D03*
X163850000Y45684000D03*
D14*
X157200000Y53984000D03*
%TD*%
D12*
%TO.C,K1*%
X156700000Y32700000D03*
X167700000Y32700000D03*
D13*
X162200000Y32700000D03*
D14*
X162200000Y38600000D03*
D15*
X160550000Y28200000D03*
X163850000Y28200000D03*
D14*
X157200000Y36500000D03*
%TD*%
D16*
%TO.C,U1*%
X98980000Y-6295000D03*
X101520000Y-6295000D03*
X104060000Y-6295000D03*
X106600000Y-6295000D03*
X109140000Y-6295000D03*
X111680000Y-6295000D03*
X114220000Y-6295000D03*
X114220000Y9895000D03*
X111680000Y9895000D03*
X109140000Y9895000D03*
X106600000Y9895000D03*
X104060000Y9895000D03*
X101520000Y9895000D03*
X98980000Y9895000D03*
D17*
X98028000Y530000D03*
X98028000Y3070000D03*
X100568000Y530000D03*
X100568000Y3070000D03*
X106283000Y-2645000D03*
X106300000Y6200000D03*
X104378000Y-2645000D03*
X104395000Y6200000D03*
X115808000Y5610000D03*
X115808000Y7515000D03*
%TD*%
D12*
%TO.C,K11*%
X119700000Y51100000D03*
D13*
X125200000Y51100000D03*
D12*
X130700000Y51100000D03*
D14*
X125200000Y57000000D03*
D15*
X123550000Y46600000D03*
D14*
X120200000Y54900000D03*
D15*
X126850000Y46600000D03*
%TD*%
D13*
%TO.C,K13*%
X104864488Y56693833D03*
D12*
X99372026Y56405985D03*
X110356951Y56981681D03*
D14*
X104555706Y62585747D03*
D18*
X103452261Y52113646D03*
X106747739Y52286354D03*
D14*
X99672464Y60226945D03*
%TD*%
D12*
%TO.C,K6*%
X175200000Y65200000D03*
D13*
X180700000Y65200000D03*
D12*
X186200000Y65200000D03*
D14*
X180700000Y71100000D03*
D15*
X179050000Y60700000D03*
X182350000Y60700000D03*
D14*
X175700000Y69000000D03*
%TD*%
D12*
%TO.C,K12*%
X100907538Y21723109D03*
D13*
X106400000Y22010957D03*
D12*
X111892463Y22298805D03*
D14*
X106091218Y27902871D03*
D18*
X104987773Y17430770D03*
X108283251Y17603478D03*
D14*
X101207976Y25544069D03*
%TD*%
D13*
%TO.C,K5*%
X180700000Y30300000D03*
D12*
X186200000Y30300000D03*
X175200000Y30300000D03*
D14*
X180700000Y36200000D03*
D15*
X179050000Y25800000D03*
D14*
X175700000Y34100000D03*
D15*
X182350000Y25800000D03*
%TD*%
D12*
%TO.C,K16*%
X138200000Y71500000D03*
X149200000Y71500000D03*
D13*
X143700000Y71500000D03*
D14*
X143700000Y77400000D03*
D15*
X142050000Y67000000D03*
X145350000Y67000000D03*
D14*
X138700000Y75300000D03*
%TD*%
D13*
%TO.C,K2*%
X162200000Y67600000D03*
D12*
X167700000Y67600000D03*
X156700000Y67600000D03*
D14*
X162200000Y73500000D03*
D15*
X160550000Y63100000D03*
D14*
X157200000Y71400000D03*
D15*
X163850000Y63100000D03*
%TD*%
D12*
%TO.C,K4*%
X160587409Y10323504D03*
X171212593Y7476494D03*
D13*
X165900001Y8899999D03*
D14*
X167427033Y14598962D03*
D19*
X163141537Y4980384D03*
X166329093Y4126282D03*
D14*
X162053884Y13864613D03*
%TD*%
D12*
%TO.C,K17*%
X149200000Y54100000D03*
D13*
X143700000Y54100000D03*
D12*
X138200000Y54100000D03*
D14*
X143700000Y60000000D03*
D15*
X142050000Y49600000D03*
D14*
X138700000Y57900000D03*
D15*
X145350000Y49600000D03*
%TD*%
D12*
%TO.C,K10*%
X119700000Y68400000D03*
X130700000Y68400000D03*
D13*
X125200000Y68400000D03*
D14*
X125200000Y74300000D03*
D15*
X123550000Y63900000D03*
X126850000Y63900000D03*
D14*
X120200000Y72200000D03*
%TD*%
D12*
%TO.C,K9*%
X119600000Y33800000D03*
X130600000Y33800000D03*
D13*
X125100000Y33800000D03*
D14*
X125100000Y39700000D03*
D15*
X123450000Y29300000D03*
D14*
X120100000Y37600000D03*
D15*
X126750000Y29300000D03*
%TD*%
D12*
%TO.C,K14*%
X111092463Y39687848D03*
X100107538Y39112152D03*
D13*
X105600000Y39400000D03*
D14*
X105291218Y45291914D03*
D18*
X104187773Y34819813D03*
D14*
X100407976Y42933112D03*
D18*
X107483251Y34992521D03*
%TD*%
D13*
%TO.C,K8*%
X184400001Y1200000D03*
D12*
X179636861Y3950000D03*
X189163141Y-1550000D03*
D14*
X187350001Y6309550D03*
D20*
X180721059Y-1872114D03*
X183578943Y-3522114D03*
D14*
X181969874Y6990897D03*
%TD*%
D21*
%TO.C,BT1*%
X121100000Y1000000D03*
D22*
X121100000Y-1500000D03*
%TD*%
D12*
%TO.C,K7*%
X175200000Y47856000D03*
D13*
X180700000Y47856000D03*
D12*
X186200000Y47856000D03*
D14*
X180700000Y53756000D03*
D15*
X179050000Y43356000D03*
D14*
X175700000Y51656000D03*
D15*
X182350000Y43356000D03*
%TD*%
M02*
