%TF.GenerationSoftware,KiCad,Pcbnew,(6.0.7-1)-1*%
%TF.CreationDate,2022-11-03T20:53:44+08:00*%
%TF.ProjectId,kiai,6b696169-2e6b-4696-9361-645f70636258,rev?*%
%TF.SameCoordinates,Original*%
%TF.FileFunction,Legend,Bot*%
%TF.FilePolarity,Positive*%
%FSLAX46Y46*%
G04 Gerber Fmt 4.6, Leading zero omitted, Abs format (unit mm)*
G04 Created by KiCad (PCBNEW (6.0.7-1)-1) date 2022-11-03 20:53:44*
%MOMM*%
%LPD*%
G01*
G04 APERTURE LIST*
%ADD10C,0.150000*%
%ADD11C,0.120000*%
G04 APERTURE END LIST*
D10*
X185766666Y18152619D02*
X185766666Y19152619D01*
X185195238Y18152619D02*
X185623809Y18724047D01*
X185195238Y19152619D02*
X185766666Y18581190D01*
X184766666Y18152619D02*
X184766666Y19152619D01*
X184338095Y18438333D02*
X183861904Y18438333D01*
X184433333Y18152619D02*
X184100000Y19152619D01*
X183766666Y18152619D01*
X183433333Y18152619D02*
X183433333Y19152619D01*
X188123809Y17209285D02*
X188885714Y16923571D01*
X188123809Y16637857D01*
X187647619Y17209285D02*
X187647619Y16352142D01*
X187695238Y16256904D01*
X187790476Y16209285D01*
X187838095Y16209285D01*
X187647619Y17542619D02*
X187695238Y17495000D01*
X187647619Y17447380D01*
X187600000Y17495000D01*
X187647619Y17542619D01*
X187647619Y17447380D01*
X186742857Y16542619D02*
X186742857Y17066428D01*
X186790476Y17161666D01*
X186885714Y17209285D01*
X187076190Y17209285D01*
X187171428Y17161666D01*
X186742857Y16590238D02*
X186838095Y16542619D01*
X187076190Y16542619D01*
X187171428Y16590238D01*
X187219047Y16685476D01*
X187219047Y16780714D01*
X187171428Y16875952D01*
X187076190Y16923571D01*
X186838095Y16923571D01*
X186742857Y16971190D01*
X186266666Y16542619D02*
X186266666Y17209285D01*
X186266666Y17114047D02*
X186219047Y17161666D01*
X186123809Y17209285D01*
X185980952Y17209285D01*
X185885714Y17161666D01*
X185838095Y17066428D01*
X185838095Y16542619D01*
X185838095Y17066428D02*
X185790476Y17161666D01*
X185695238Y17209285D01*
X185552380Y17209285D01*
X185457142Y17161666D01*
X185409523Y17066428D01*
X185409523Y16542619D01*
X184933333Y16542619D02*
X184933333Y17209285D01*
X184933333Y17114047D02*
X184885714Y17161666D01*
X184790476Y17209285D01*
X184647619Y17209285D01*
X184552380Y17161666D01*
X184504761Y17066428D01*
X184504761Y16542619D01*
X184504761Y17066428D02*
X184457142Y17161666D01*
X184361904Y17209285D01*
X184219047Y17209285D01*
X184123809Y17161666D01*
X184076190Y17066428D01*
X184076190Y16542619D01*
X183219047Y16590238D02*
X183314285Y16542619D01*
X183504761Y16542619D01*
X183600000Y16590238D01*
X183647619Y16685476D01*
X183647619Y17066428D01*
X183600000Y17161666D01*
X183504761Y17209285D01*
X183314285Y17209285D01*
X183219047Y17161666D01*
X183171428Y17066428D01*
X183171428Y16971190D01*
X183647619Y16875952D01*
X182742857Y16542619D02*
X182742857Y17209285D01*
X182742857Y17018809D02*
X182695238Y17114047D01*
X182647619Y17161666D01*
X182552380Y17209285D01*
X182457142Y17209285D01*
X181409523Y17590238D02*
X182266666Y16304523D01*
X181076190Y17209285D02*
X180314285Y16923571D01*
X181076190Y16637857D01*
D11*
%TO.C,K15*%
X141350000Y33200000D02*
X141350000Y31200000D01*
X141350000Y31200000D02*
X145250000Y31200000D01*
X141350000Y33200000D02*
X145250000Y33200000D01*
%TO.C,K3*%
X159950000Y46684000D02*
X159950000Y44684000D01*
X159950000Y46684000D02*
X163850000Y46684000D01*
X159950000Y44684000D02*
X163850000Y44684000D01*
%TO.C,K1*%
X159950000Y29200000D02*
X163850000Y29200000D01*
X159950000Y29200000D02*
X159950000Y27200000D01*
X159950000Y27200000D02*
X163850000Y27200000D01*
%TO.C,K11*%
X122950000Y45600000D02*
X126850000Y45600000D01*
X122950000Y47600000D02*
X122950000Y45600000D01*
X122950000Y47600000D02*
X126850000Y47600000D01*
%TO.C,K13*%
X102800748Y53080874D02*
X106695403Y53284984D01*
X102800748Y53080874D02*
X102905420Y51083615D01*
X102905420Y51083615D02*
X106800075Y51287725D01*
%TO.C,K6*%
X178450000Y59700000D02*
X182350000Y59700000D01*
X178450000Y61700000D02*
X182350000Y61700000D01*
X178450000Y61700000D02*
X178450000Y59700000D01*
%TO.C,K12*%
X104336260Y18397998D02*
X104440932Y16400739D01*
X104440932Y16400739D02*
X108335587Y16604849D01*
X104336260Y18397998D02*
X108230915Y18602108D01*
%TO.C,K5*%
X178450000Y26800000D02*
X182350000Y26800000D01*
X178450000Y26800000D02*
X178450000Y24800000D01*
X178450000Y24800000D02*
X182350000Y24800000D01*
%TO.C,K16*%
X141450000Y66000000D02*
X145350000Y66000000D01*
X141450000Y68000000D02*
X141450000Y66000000D01*
X141450000Y68000000D02*
X145350000Y68000000D01*
%TO.C,K2*%
X159950000Y64100000D02*
X159950000Y62100000D01*
X159950000Y62100000D02*
X163850000Y62100000D01*
X159950000Y64100000D02*
X163850000Y64100000D01*
%TO.C,K4*%
X162820801Y6101602D02*
X166587912Y5092207D01*
X162303163Y4169750D02*
X166070274Y3160356D01*
X162820801Y6101602D02*
X162303163Y4169750D01*
%TO.C,K17*%
X141450000Y50600000D02*
X141450000Y48600000D01*
X141450000Y48600000D02*
X145350000Y48600000D01*
X141450000Y50600000D02*
X145350000Y50600000D01*
%TO.C,K10*%
X122950000Y62900000D02*
X126850000Y62900000D01*
X122950000Y64900000D02*
X122950000Y62900000D01*
X122950000Y64900000D02*
X126850000Y64900000D01*
%TO.C,K9*%
X122850000Y30300000D02*
X122850000Y28300000D01*
X122850000Y28300000D02*
X126750000Y28300000D01*
X122850000Y30300000D02*
X126750000Y30300000D01*
%TO.C,K14*%
X103536260Y35787041D02*
X103640932Y33789782D01*
X103536260Y35787041D02*
X107430915Y35991151D01*
X103640932Y33789782D02*
X107535587Y33993892D01*
%TO.C,K8*%
X180701444Y-706089D02*
X184078943Y-2656089D01*
X179701444Y-2438139D02*
X183078943Y-4388139D01*
X180701444Y-706089D02*
X179701444Y-2438139D01*
%TO.C,K7*%
X178450000Y44356000D02*
X182350000Y44356000D01*
X178450000Y42356000D02*
X182350000Y42356000D01*
X178450000Y44356000D02*
X178450000Y42356000D01*
%TD*%
M02*
