M48
; DRILL file {KiCad (6.0.7-1)-1} date Thursday, November 03, 2022 at 08:53:32 PM
; FORMAT={-:-/ absolute / inch / decimal}
; #@! TF.CreationDate,2022-11-03T20:53:32+08:00
; #@! TF.GenerationSoftware,Kicad,Pcbnew,(6.0.7-1)-1
; #@! TF.FileFunction,NonPlated,1,2,NPTH
FMAT,2
INCH
; #@! TA.AperFunction,NonPlated,NPTH,ComponentDrill
T1C0.0669
; #@! TA.AperFunction,NonPlated,NPTH,ComponentDrill
T2C0.1339
%
G90
G05
T1
X3.9123Y2.2207
X3.9412Y1.5398
X3.9727Y0.8552
X4.3448Y2.2434
X4.3737Y1.5625
X4.4052Y0.8779
X4.7087Y1.3307
X4.7126Y2.6929
X4.7126Y2.0118
X5.1417Y1.3307
X5.1457Y2.6929
X5.1457Y2.0118
X5.437Y1.4449
X5.4409Y2.815
X5.4409Y2.1299
X5.8701Y1.4449
X5.874Y2.815
X5.874Y2.1299
X6.1693Y2.6614
X6.1693Y1.9757
X6.1693Y1.2874
X6.3223Y0.4064
X6.6024Y2.6614
X6.6024Y1.9757
X6.6024Y1.2874
X6.7407Y0.2944
X6.8976Y2.5669
X6.8976Y1.8841
X6.8976Y1.1929
X7.0723Y0.1555
X7.3307Y2.5669
X7.3307Y1.8841
X7.3307Y1.1929
X7.4474Y-0.061
T2
X4.1285Y2.232
X4.1575Y1.5512
X4.189Y0.8666
X4.9252Y1.3307
X4.9291Y2.6929
X4.9291Y2.0118
X5.6535Y1.4449
X5.6575Y2.815
X5.6575Y2.1299
X6.3858Y2.6614
X6.3858Y1.9757
X6.3858Y1.2874
X6.5315Y0.3504
X7.1142Y2.5669
X7.1142Y1.8841
X7.1142Y1.1929
X7.2598Y0.0472
T0
M30
