M48
; DRILL file {KiCad (6.0.7-1)-1} date Thursday, November 03, 2022 at 08:53:32 PM
; FORMAT={-:-/ absolute / inch / decimal}
; #@! TF.CreationDate,2022-11-03T20:53:32+08:00
; #@! TF.GenerationSoftware,Kicad,Pcbnew,(6.0.7-1)-1
; #@! TF.FileFunction,Plated,1,2,PTH
FMAT,2
INCH
; #@! TA.AperFunction,Plated,PTH,ComponentDrill
T1C0.0157
; #@! TA.AperFunction,Plated,PTH,ComponentDrill
T2C0.0394
; #@! TA.AperFunction,Plated,PTH,ComponentDrill
T3C0.0400
; #@! TA.AperFunction,Plated,PTH,ComponentDrill
T4C0.0472
%
G90
G05
T1
X4.0729Y2.0517
X4.1019Y1.3709
X4.1334Y0.6863
X4.2027Y2.0585
X4.2316Y1.3777
X4.2631Y0.6931
X4.8602Y1.1535
X4.8642Y2.5157
X4.8642Y1.8346
X4.9902Y1.1535
X4.9941Y2.5157
X4.9941Y1.8346
X5.5886Y1.2677
X5.5925Y2.6378
X5.5925Y1.9528
X5.7185Y1.2677
X5.7224Y2.6378
X5.7224Y1.9528
X6.3209Y2.4843
X6.3209Y1.7986
X6.3209Y1.1102
X6.4229Y0.1961
X6.4508Y2.4843
X6.4508Y1.7986
X6.4508Y1.1102
X6.5484Y0.1625
X7.0492Y2.3898
X7.0492Y1.7069
X7.0492Y1.0157
X7.115Y-0.0737
X7.1791Y2.3898
X7.1791Y1.7069
X7.1791Y1.0157
X7.2275Y-0.1387
T2
X3.8969Y0.3709
X3.8969Y-0.2291
X3.9969Y0.3709
X3.9969Y-0.2291
X4.0969Y0.3709
X4.0969Y-0.2291
X4.1969Y0.3709
X4.1969Y-0.2291
X4.2969Y0.3709
X4.2969Y-0.2291
X4.3969Y0.3709
X4.3969Y-0.2291
X4.4969Y0.3709
X4.4969Y-0.2291
X4.7677Y0.0394
X4.7677Y-0.0591
X4.9646Y0.0787
X4.9646Y-0.0213
X4.9646Y-0.1213
T3
X3.8594Y0.1209
X3.8594Y0.0209
X3.9594Y0.1209
X3.9594Y0.0209
X4.1094Y-0.1041
X4.11Y0.2441
X4.1844Y-0.1041
X4.185Y0.2441
X4.5594Y0.2959
X4.5594Y0.2209
T4
X3.9241Y2.3711
X3.9531Y1.6903
X3.9846Y1.0057
X4.1164Y2.464
X4.1453Y1.7831
X4.1768Y1.0985
X4.3173Y2.3917
X4.3462Y1.7109
X4.3777Y1.0263
X4.7283Y1.4803
X4.7323Y2.8425
X4.7323Y2.1614
X4.9252Y1.563
X4.9291Y2.9252
X4.9291Y2.2441
X5.122Y1.4803
X5.126Y2.8425
X5.126Y2.1614
X5.4567Y1.5945
X5.4606Y2.9646
X5.4606Y2.2795
X5.6535Y1.6772
X5.6575Y3.0472
X5.6575Y2.3622
X5.8504Y1.5945
X5.8543Y2.9646
X5.8543Y2.2795
X6.189Y2.811
X6.189Y2.1254
X6.189Y1.437
X6.3801Y0.5459
X6.3858Y2.8937
X6.3858Y2.208
X6.3858Y1.5197
X6.5827Y2.811
X6.5827Y2.1254
X6.5827Y1.437
X6.5916Y0.5748
X6.7604Y0.444
X6.9173Y2.7165
X6.9173Y2.0337
X6.9173Y1.3425
X7.1142Y2.7992
X7.1142Y2.1164
X7.1142Y1.4252
X7.1642Y0.2752
X7.311Y2.7165
X7.311Y2.0337
X7.311Y1.3425
X7.376Y0.2484
X7.5051Y0.0784
T0
M30
