%TF.GenerationSoftware,KiCad,Pcbnew,(6.0.7-1)-1*%
%TF.CreationDate,2022-11-03T20:53:44+08:00*%
%TF.ProjectId,kiai,6b696169-2e6b-4696-9361-645f70636258,rev?*%
%TF.SameCoordinates,Original*%
%TF.FileFunction,Copper,L2,Bot*%
%TF.FilePolarity,Positive*%
%FSLAX46Y46*%
G04 Gerber Fmt 4.6, Leading zero omitted, Abs format (unit mm)*
G04 Created by KiCad (PCBNEW (6.0.7-1)-1) date 2022-11-03 20:53:44*
%MOMM*%
%LPD*%
G01*
G04 APERTURE LIST*
G04 Aperture macros list*
%AMRoundRect*
0 Rectangle with rounded corners*
0 $1 Rounding radius*
0 $2 $3 $4 $5 $6 $7 $8 $9 X,Y pos of 4 corners*
0 Add a 4 corners polygon primitive as box body*
4,1,4,$2,$3,$4,$5,$6,$7,$8,$9,$2,$3,0*
0 Add four circle primitives for the rounded corners*
1,1,$1+$1,$2,$3*
1,1,$1+$1,$4,$5*
1,1,$1+$1,$6,$7*
1,1,$1+$1,$8,$9*
0 Add four rect primitives between the rounded corners*
20,1,$1+$1,$2,$3,$4,$5,0*
20,1,$1+$1,$4,$5,$6,$7,0*
20,1,$1+$1,$6,$7,$8,$9,0*
20,1,$1+$1,$8,$9,$2,$3,0*%
%AMRotRect*
0 Rectangle, with rotation*
0 The origin of the aperture is its center*
0 $1 length*
0 $2 width*
0 $3 Rotation angle, in degrees counterclockwise*
0 Add horizontal line*
21,1,$1,$2,0,0,$3*%
%AMFreePoly0*
4,1,15,10.036070,0.121770,10.096138,0.082984,10.125733,0.017894,10.115473,-0.052868,10.068611,-0.106872,10.000000,-0.127000,0.000000,-0.127000,-0.036070,-0.121770,-0.096138,-0.082984,-0.125733,-0.017894,-0.115473,0.052868,-0.068611,0.106872,0.000000,0.127000,10.000000,0.127000,10.036070,0.121770,10.036070,0.121770,$1*%
G04 Aperture macros list end*
%TA.AperFunction,ComponentPad*%
%ADD10R,1.700000X1.700000*%
%TD*%
%TA.AperFunction,ComponentPad*%
%ADD11O,1.700000X1.700000*%
%TD*%
%TA.AperFunction,ComponentPad*%
%ADD12C,2.000000*%
%TD*%
%TA.AperFunction,ComponentPad*%
%ADD13R,0.900000X1.200000*%
%TD*%
%TA.AperFunction,SMDPad,CuDef*%
%ADD14FreePoly0,0.000000*%
%TD*%
%TA.AperFunction,ComponentPad*%
%ADD15O,1.800000X2.750000*%
%TD*%
%TA.AperFunction,ComponentPad*%
%ADD16C,1.397000*%
%TD*%
%TA.AperFunction,ComponentPad*%
%ADD17RotRect,0.900000X1.200000X3.000000*%
%TD*%
%TA.AperFunction,SMDPad,CuDef*%
%ADD18FreePoly0,3.000000*%
%TD*%
%TA.AperFunction,ComponentPad*%
%ADD19RotRect,0.900000X1.200000X345.000000*%
%TD*%
%TA.AperFunction,SMDPad,CuDef*%
%ADD20FreePoly0,345.000000*%
%TD*%
%TA.AperFunction,ComponentPad*%
%ADD21RotRect,0.900000X1.200000X330.000000*%
%TD*%
%TA.AperFunction,SMDPad,CuDef*%
%ADD22FreePoly0,330.000000*%
%TD*%
%TA.AperFunction,ComponentPad*%
%ADD23RoundRect,0.250000X-0.750000X0.600000X-0.750000X-0.600000X0.750000X-0.600000X0.750000X0.600000X0*%
%TD*%
%TA.AperFunction,ComponentPad*%
%ADD24O,2.000000X1.700000*%
%TD*%
%TA.AperFunction,Conductor*%
%ADD25C,0.250000*%
%TD*%
G04 APERTURE END LIST*
D10*
%TO.P,GD1,1*%
%TO.N,/Col5A*%
X126100000Y2000000D03*
D11*
%TO.P,GD1,2*%
%TO.N,/Col 5*%
X126100000Y-540000D03*
%TO.P,GD1,3*%
%TO.N,/Col 5B*%
X126100000Y-3080000D03*
%TD*%
D12*
%TO.P,K15,1*%
%TO.N,/Row 1*%
X143600000Y42600000D03*
D13*
%TO.P,K15,2*%
%TO.N,/Col 5*%
X141950000Y32200000D03*
D14*
%TO.P,K15,3*%
%TO.N,N/C*%
X138600000Y40500000D03*
D13*
X145250000Y32200000D03*
D12*
X148600000Y40500000D03*
X138600000Y40500000D03*
%TD*%
%TO.P,K3,1*%
%TO.N,/Row 3*%
X162200000Y56084000D03*
D13*
%TO.P,K3,2*%
%TO.N,/Col 1*%
X160550000Y45684000D03*
%TO.P,K3,3*%
%TO.N,N/C*%
X163850000Y45684000D03*
D14*
X157200000Y53984000D03*
D12*
X167200000Y53984000D03*
X157200000Y53984000D03*
%TD*%
%TO.P,K1,1*%
%TO.N,/Row 1*%
X162200000Y38600000D03*
D13*
%TO.P,K1,2*%
%TO.N,/Col 1*%
X160550000Y28200000D03*
D12*
%TO.P,K1,3*%
%TO.N,N/C*%
X167200000Y36500000D03*
D13*
X163850000Y28200000D03*
D12*
X157200000Y36500000D03*
D14*
X157200000Y36500000D03*
%TD*%
D15*
%TO.P,U1,1,A2/0.02_H*%
%TO.N,unconnected-(U1-Pad1)*%
X98980000Y-6295000D03*
%TO.P,U1,2,A4/0.03_H*%
%TO.N,/Col 5B*%
X101520000Y-6295000D03*
%TO.P,U1,3,A10/0.28*%
%TO.N,unconnected-(U1-Pad3)*%
X104060000Y-6295000D03*
%TO.P,U1,4,A11/0.29*%
%TO.N,/Col 4*%
X106600000Y-6295000D03*
%TO.P,U1,5,A8_SDA/0.04_H*%
%TO.N,/Row 4*%
X109140000Y-6295000D03*
%TO.P,U1,6,A9_SCL/0.05_H*%
%TO.N,/Col 1*%
X111680000Y-6295000D03*
%TO.P,U1,7,B8_TX/1.11*%
%TO.N,/Row 2*%
X114220000Y-6295000D03*
%TO.P,U1,8,B9_RX/1.12*%
%TO.N,/Row 1*%
X114220000Y9895000D03*
%TO.P,U1,9,A7_SCK/1.13*%
%TO.N,/Col 3*%
X111680000Y9895000D03*
%TO.P,U1,10,A5_MISO/1.14*%
%TO.N,/Row 3*%
X109140000Y9895000D03*
%TO.P,U1,11,A6_MOSI/1.15*%
%TO.N,/Col 2*%
X106600000Y9895000D03*
%TO.P,U1,12,3V3*%
%TO.N,unconnected-(U1-Pad12)*%
X104060000Y9895000D03*
%TO.P,U1,13,GND*%
%TO.N,/Col5A*%
X101520000Y9895000D03*
%TO.P,U1,14,5V*%
%TO.N,unconnected-(U1-Pad14)*%
X98980000Y9895000D03*
D16*
%TO.P,U1,15,A31_SWDIO*%
%TO.N,unconnected-(U1-Pad15)*%
X98028000Y530000D03*
%TO.P,U1,16,A30_SWCLK*%
%TO.N,unconnected-(U1-Pad16)*%
X98028000Y3070000D03*
%TO.P,U1,17,RESET*%
%TO.N,unconnected-(U1-Pad17)*%
X100568000Y530000D03*
%TO.P,U1,18,GND*%
%TO.N,GND*%
X100568000Y3070000D03*
%TO.P,U1,19,BAT*%
%TO.N,Net-(BT1-Pad1)*%
X106283000Y-2645000D03*
X106300000Y6200000D03*
%TO.P,U1,20,GND*%
%TO.N,Net-(BT1-Pad2)*%
X104378000Y-2645000D03*
X104395000Y6200000D03*
%TO.P,U1,21,NFC1/0.09_H*%
%TO.N,unconnected-(U1-Pad21)*%
X115808000Y5610000D03*
%TO.P,U1,22,NFC2/0.10_H*%
%TO.N,unconnected-(U1-Pad22)*%
X115808000Y7515000D03*
%TD*%
D12*
%TO.P,K11,1*%
%TO.N,/Row 3*%
X125200000Y57000000D03*
D13*
%TO.P,K11,2*%
%TO.N,/Col 3*%
X123550000Y46600000D03*
D12*
%TO.P,K11,3*%
%TO.N,N/C*%
X130200000Y54900000D03*
X120200000Y54900000D03*
D13*
X126850000Y46600000D03*
D14*
X120200000Y54900000D03*
%TD*%
D12*
%TO.P,K13,1*%
%TO.N,/Row 2*%
X104555706Y62585747D03*
D17*
%TO.P,K13,2*%
%TO.N,/Col 4*%
X103452261Y52113646D03*
D12*
%TO.P,K13,3*%
%TO.N,N/C*%
X109658759Y60750305D03*
D17*
X106747739Y52286354D03*
D12*
X99672464Y60226945D03*
D18*
X99672464Y60226945D03*
%TD*%
D12*
%TO.P,K6,1*%
%TO.N,/Row 2*%
X180700000Y71100000D03*
D13*
%TO.P,K6,2*%
%TO.N,/Col 2*%
X179050000Y60700000D03*
D14*
%TO.P,K6,3*%
%TO.N,N/C*%
X175700000Y69000000D03*
D12*
X185700000Y69000000D03*
D13*
X182350000Y60700000D03*
D12*
X175700000Y69000000D03*
%TD*%
%TO.P,K12,1*%
%TO.N,/Row 1*%
X106091218Y27902871D03*
D17*
%TO.P,K12,2*%
%TO.N,/Col 4*%
X104987773Y17430770D03*
%TO.P,K12,3*%
%TO.N,N/C*%
X108283251Y17603478D03*
D12*
X111194271Y26067429D03*
X101207976Y25544069D03*
D18*
X101207976Y25544069D03*
%TD*%
D12*
%TO.P,K5,1*%
%TO.N,/Row 1*%
X180700000Y36200000D03*
D13*
%TO.P,K5,2*%
%TO.N,/Col 2*%
X179050000Y25800000D03*
D14*
%TO.P,K5,3*%
%TO.N,N/C*%
X175700000Y34100000D03*
D12*
X185700000Y34100000D03*
X175700000Y34100000D03*
D13*
X182350000Y25800000D03*
%TD*%
D12*
%TO.P,K16,1*%
%TO.N,/Row 2*%
X143700000Y77400000D03*
D13*
%TO.P,K16,2*%
%TO.N,/Col 5*%
X142050000Y67000000D03*
%TO.P,K16,3*%
%TO.N,N/C*%
X145350000Y67000000D03*
D12*
X138700000Y75300000D03*
D14*
X138700000Y75300000D03*
D12*
X148700000Y75300000D03*
%TD*%
%TO.P,K2,1*%
%TO.N,/Row 2*%
X162200000Y73500000D03*
D13*
%TO.P,K2,2*%
%TO.N,/Col 1*%
X160550000Y63100000D03*
D12*
%TO.P,K2,3*%
%TO.N,N/C*%
X167200000Y71400000D03*
D14*
X157200000Y71400000D03*
D12*
X157200000Y71400000D03*
D13*
X163850000Y63100000D03*
%TD*%
D12*
%TO.P,K4,1*%
%TO.N,/Row 4*%
X167427033Y14598962D03*
D19*
%TO.P,K4,2*%
%TO.N,/Col 1*%
X163141537Y4980384D03*
%TO.P,K4,3*%
%TO.N,N/C*%
X166329093Y4126282D03*
D12*
X171713142Y11276422D03*
X162053884Y13864613D03*
D20*
X162053884Y13864613D03*
%TD*%
D12*
%TO.P,K17,1*%
%TO.N,/Row 3*%
X143700000Y60000000D03*
D13*
%TO.P,K17,2*%
%TO.N,/Col 5*%
X142050000Y49600000D03*
D12*
%TO.P,K17,3*%
%TO.N,N/C*%
X138700000Y57900000D03*
D14*
X138700000Y57900000D03*
D13*
X145350000Y49600000D03*
D12*
X148700000Y57900000D03*
%TD*%
%TO.P,K10,1*%
%TO.N,/Row 2*%
X125200000Y74300000D03*
D13*
%TO.P,K10,2*%
%TO.N,/Col 3*%
X123550000Y63900000D03*
D12*
%TO.P,K10,3*%
%TO.N,N/C*%
X130200000Y72200000D03*
D13*
X126850000Y63900000D03*
D12*
X120200000Y72200000D03*
D14*
X120200000Y72200000D03*
%TD*%
D12*
%TO.P,K9,1*%
%TO.N,/Row 1*%
X125100000Y39700000D03*
D13*
%TO.P,K9,2*%
%TO.N,/Col 3*%
X123450000Y29300000D03*
D12*
%TO.P,K9,3*%
%TO.N,N/C*%
X120100000Y37600000D03*
D14*
X120100000Y37600000D03*
D12*
X130100000Y37600000D03*
D13*
X126750000Y29300000D03*
%TD*%
D12*
%TO.P,K14,1*%
%TO.N,/Row 3*%
X105291218Y45291914D03*
D17*
%TO.P,K14,2*%
%TO.N,/Col 4*%
X104187773Y34819813D03*
D12*
%TO.P,K14,3*%
%TO.N,N/C*%
X100407976Y42933112D03*
X110394271Y43456472D03*
D17*
X107483251Y34992521D03*
D18*
X100407976Y42933112D03*
%TD*%
D12*
%TO.P,K8,1*%
%TO.N,/Row 4*%
X187350001Y6309550D03*
D21*
%TO.P,K8,2*%
%TO.N,/Col 2*%
X180721059Y-1872114D03*
%TO.P,K8,3*%
%TO.N,N/C*%
X183578943Y-3522114D03*
D12*
X181969874Y6990897D03*
D22*
X181969874Y6990897D03*
D12*
X190630128Y1990897D03*
%TD*%
D23*
%TO.P,BT1,1,+*%
%TO.N,Net-(BT1-Pad1)*%
X121100000Y1000000D03*
D24*
%TO.P,BT1,2,-*%
%TO.N,Net-(BT1-Pad2)*%
X121100000Y-1500000D03*
%TD*%
D12*
%TO.P,K7,1*%
%TO.N,/Row 3*%
X180700000Y53756000D03*
D13*
%TO.P,K7,2*%
%TO.N,/Col 2*%
X179050000Y43356000D03*
D14*
%TO.P,K7,3*%
%TO.N,N/C*%
X175700000Y51656000D03*
D12*
X175700000Y51656000D03*
X185700000Y51656000D03*
D13*
X182350000Y43356000D03*
%TD*%
D25*
%TO.N,/Col 2*%
X106600000Y9420000D02*
X111820000Y4200000D01*
X111820000Y4200000D02*
X135800000Y4200000D01*
X135800000Y4200000D02*
X157400000Y25800000D01*
X157400000Y25800000D02*
X179050000Y25800000D01*
%TO.N,/Row 3*%
X107600000Y13000000D02*
X109140000Y11460000D01*
X109140000Y11460000D02*
X109140000Y9420000D01*
%TO.N,/Row 1*%
X106091218Y27902871D02*
X111232662Y27902871D01*
X111232662Y27902871D02*
X114220000Y24915533D01*
X114220000Y24915533D02*
X114220000Y9420000D01*
%TO.N,/Row 3*%
X98700000Y14500000D02*
X100200000Y13000000D01*
X98700000Y43098969D02*
X98700000Y14500000D01*
X100892945Y45291914D02*
X98700000Y43098969D01*
X105291218Y45291914D02*
X100892945Y45291914D01*
X100200000Y13000000D02*
X107600000Y13000000D01*
%TO.N,/Row 2*%
X104555706Y62585747D02*
X100157433Y62585747D01*
X100157433Y62585747D02*
X97755000Y60183314D01*
X97755000Y60183314D02*
X97755000Y8845000D01*
X97755000Y8845000D02*
X110784278Y-4184278D01*
X110784278Y-4184278D02*
X112584278Y-4184278D01*
X112584278Y-4184278D02*
X114220000Y-5820000D01*
%TO.N,/Row 4*%
X109140000Y-5820000D02*
X109140000Y-5962412D01*
X166427033Y15598962D02*
X167427033Y14598962D01*
X109140000Y-5962412D02*
X111477588Y-8300000D01*
X111477588Y-8300000D02*
X117300000Y-8300000D01*
X117300000Y-8300000D02*
X120800000Y-4800000D01*
X120800000Y-4800000D02*
X129300000Y-4800000D01*
X129300000Y-4800000D02*
X129300000Y-4500000D01*
X129300000Y-4500000D02*
X129200000Y-4400000D01*
X129200000Y-4400000D02*
X149198962Y15598962D01*
X149198962Y15598962D02*
X166427033Y15598962D01*
X187350001Y6309550D02*
X179060589Y14598962D01*
X179060589Y14598962D02*
X167427033Y14598962D01*
%TO.N,/Row 1*%
X116600000Y39700000D02*
X115800000Y38900000D01*
X125100000Y39700000D02*
X116600000Y39700000D01*
X115800000Y38900000D02*
X115800000Y37611653D01*
X115800000Y37611653D02*
X106091218Y27902871D01*
X132700000Y42600000D02*
X132600000Y42700000D01*
X143600000Y42600000D02*
X132700000Y42600000D01*
X132600000Y42700000D02*
X128100000Y42700000D01*
X128100000Y42700000D02*
X125100000Y39700000D01*
X162200000Y38600000D02*
X161900000Y38900000D01*
X161900000Y38900000D02*
X155700000Y38900000D01*
X155700000Y38900000D02*
X151700000Y42900000D01*
X151700000Y42900000D02*
X151400000Y42600000D01*
X151400000Y42600000D02*
X143600000Y42600000D01*
X171900000Y36200000D02*
X169000000Y39100000D01*
X180700000Y36200000D02*
X171900000Y36200000D01*
X169000000Y39100000D02*
X168500000Y38600000D01*
X168500000Y38600000D02*
X162200000Y38600000D01*
%TO.N,/Row 3*%
X162200000Y56084000D02*
X172916000Y56084000D01*
X175244000Y53756000D02*
X180700000Y53756000D01*
X172916000Y56084000D02*
X175244000Y53756000D01*
X143700000Y60000000D02*
X153400000Y60000000D01*
X153400000Y60000000D02*
X157316000Y56084000D01*
X157316000Y56084000D02*
X162200000Y56084000D01*
X125200000Y57000000D02*
X133200000Y57000000D01*
X143600000Y59900000D02*
X143700000Y60000000D01*
X133200000Y57000000D02*
X136100000Y59900000D01*
X136100000Y59900000D02*
X143600000Y59900000D01*
X107291914Y45291914D02*
X119100000Y57100000D01*
X105291218Y45291914D02*
X107291914Y45291914D01*
X119200000Y57000000D02*
X125200000Y57000000D01*
X119100000Y57100000D02*
X119200000Y57000000D01*
%TO.N,/Row 2*%
X125200000Y74300000D02*
X118800000Y74300000D01*
X118800000Y74300000D02*
X116800000Y72300000D01*
X116800000Y72300000D02*
X116800000Y64200000D01*
X116800000Y64200000D02*
X115185747Y62585747D01*
X115185747Y62585747D02*
X104555706Y62585747D01*
X136400000Y77600000D02*
X133500000Y74700000D01*
X133500000Y74700000D02*
X133500000Y74400000D01*
X143700000Y77400000D02*
X136600000Y77400000D01*
X136600000Y77400000D02*
X136400000Y77600000D01*
X133500000Y74400000D02*
X133400000Y74300000D01*
X133400000Y74300000D02*
X125200000Y74300000D01*
X162200000Y73500000D02*
X153000000Y73500000D01*
X153000000Y73500000D02*
X149500000Y77000000D01*
X149500000Y77500000D02*
X149400000Y77400000D01*
X149500000Y77000000D02*
X149500000Y77500000D01*
X149400000Y77400000D02*
X143700000Y77400000D01*
X180700000Y71100000D02*
X178300000Y73500000D01*
X178300000Y73500000D02*
X162200000Y73500000D01*
%TD*%
M02*
